<?xml version="1.0" encoding="UTF-8" standalone="no"?>
<!-- Created with Inkscape (http://www.inkscape.org/) -->

<svg
   width="171.39313mm"
   height="51.485584mm"
   viewBox="0 0 171.39313 51.485584"
   version="1.1"
   id="svg5"
   inkscape:version="1.1 (1:1.1+202105261517+ce6663b3b7)"
   sodipodi:docname="drawing.svg"
   inkscape:export-filename="/home/astrale/Cours/EN/mes_cours/5e/Progression/Theme/Theme1/PartieB/3 Le grain de sel/exercices/drawing.png"
   inkscape:export-xdpi="96"
   inkscape:export-ydpi="96"
   xmlns:inkscape="http://www.inkscape.org/namespaces/inkscape"
   xmlns:sodipodi="http://sodipodi.sourceforge.net/DTD/sodipodi-0.dtd"
   xmlns:xlink="http://www.w3.org/1999/xlink"
   xmlns="http://www.w3.org/2000/svg"
   xmlns:svg="http://www.w3.org/2000/svg">
  <sodipodi:namedview
     id="namedview7"
     pagecolor="#ffffff"
     bordercolor="#666666"
     borderopacity="1.0"
     inkscape:pageshadow="2"
     inkscape:pageopacity="0.0"
     inkscape:pagecheckerboard="0"
     inkscape:document-units="mm"
     showgrid="false"
     inkscape:zoom="1.6657883"
     inkscape:cx="219.41564"
     inkscape:cy="83.143818"
     inkscape:window-width="1920"
     inkscape:window-height="1025"
     inkscape:window-x="0"
     inkscape:window-y="0"
     inkscape:window-maximized="1"
     inkscape:current-layer="layer1"
     fit-margin-top="0"
     fit-margin-left="0"
     fit-margin-right="0"
     fit-margin-bottom="0">
    <inkscape:grid
       type="xygrid"
       id="grid10918"
       originx="25.904828"
       originy="-118.03917" />
  </sodipodi:namedview>
  <defs
     id="defs2">
    <marker
       style="overflow:visible"
       id="Arrow1Mend"
       refX="0"
       refY="0"
       orient="auto"
       inkscape:stockid="Arrow1Mend"
       inkscape:isstock="true">
      <path
         transform="matrix(-0.4,0,0,-0.4,-4,0)"
         style="fill:context-stroke;fill-rule:evenodd;stroke:context-stroke;stroke-width:1pt"
         d="M 0,0 5,-5 -12.5,0 5,5 Z"
         id="path11861" />
    </marker>
    <marker
       style="overflow:visible"
       id="Arrow1Lend"
       refX="0"
       refY="0"
       orient="auto"
       inkscape:stockid="Arrow1Lend"
       inkscape:isstock="true">
      <path
         transform="matrix(-0.8,0,0,-0.8,-10,0)"
         style="fill:context-stroke;fill-rule:evenodd;stroke:context-stroke;stroke-width:1pt"
         d="M 0,0 5,-5 -12.5,0 5,5 Z"
         id="path11855" />
    </marker>
    <linearGradient
       inkscape:collect="always"
       y2="461.85001"
       x2="59.317001"
       gradientTransform="matrix(0.36371216,0,0,0.10817974,32.994614,1424.905)"
       y1="465.73999"
       gradientUnits="userSpaceOnUse"
       x1="389.23999"
       id="linearGradient7326">
      <stop
         offset="0"
         style="stop-color:#606060"
         id="stop7095-0-0" />
      <stop
         offset="1"
         style="stop-color:#040404"
         id="stop7097-9-2" />
    </linearGradient>
    <linearGradient
       inkscape:collect="always"
       y2="233.07001"
       x2="125.84"
       gradientTransform="matrix(0.61008874,0,0,0.61008874,122.51182,1667.5074)"
       y1="234.05"
       gradientUnits="userSpaceOnUse"
       xlink:href="#linearGradient7117-6"
       x1="357.28"
       id="linearGradient7323" />
    <linearGradient
       id="linearGradient7117-6">
      <stop
         offset="0"
         style="stop-color:#7d7d7d"
         id="stop7131-8" />
      <stop
         offset="1"
         style="stop-color:#cecece"
         id="stop7121-5" />
    </linearGradient>
    <radialGradient
       inkscape:collect="always"
       r="11.454"
       gradientTransform="matrix(0.59001682,0.46521096,-0.49001107,0.62149737,274.44212,1525.9668)"
       cx="295.64001"
       cy="297.92001"
       gradientUnits="userSpaceOnUse"
       xlink:href="#linearGradient7117-6"
       id="radialGradient7316" />
    <radialGradient
       inkscape:collect="always"
       r="11.454"
       gradientTransform="matrix(0.98708019,0.77828379,-0.81977362,1.0397462,158.26018,985.10271)"
       cx="295.64001"
       cy="297.92001"
       gradientUnits="userSpaceOnUse"
       id="radialGradient7313">
      <stop
         offset="0"
         style="stop-color:#7d7d7d"
         id="stop7131-8-3" />
      <stop
         offset="1"
         style="stop-color:#cecece"
         id="stop7121-5-9" />
    </radialGradient>
    <linearGradient
       inkscape:collect="always"
       y2="390.57999"
       x2="223.39"
       gradientTransform="matrix(1.4738329,0,0,1.113642,-292.25908,1141.8434)"
       y1="390.57999"
       gradientUnits="userSpaceOnUse"
       x1="204.66"
       id="linearGradient7304">
      <stop
         offset="0"
         style="stop-color:#1a1a1a"
         id="stop3824-40" />
      <stop
         offset="1"
         style="stop-color:#606060"
         id="stop3826-1" />
    </linearGradient>
    <linearGradient
       inkscape:collect="always"
       y2="390.57999"
       x2="223.39"
       gradientTransform="matrix(1.4738329,0,0,1.113642,-112.44738,1141.7546)"
       y1="390.57999"
       gradientUnits="userSpaceOnUse"
       x1="204.66"
       id="linearGradient7301">
      <stop
         offset="0"
         style="stop-color:#1a1a1a"
         id="stop3824-4-4" />
      <stop
         offset="1"
         style="stop-color:#606060"
         id="stop3826-6-4" />
    </linearGradient>
    <linearGradient
       inkscape:collect="always"
       xlink:href="#linearGradient7326"
       id="linearGradient337"
       gradientUnits="userSpaceOnUse"
       gradientTransform="matrix(0.21740512,0,0,0.0646633,633.41582,1788.8541)"
       x1="389.23999"
       y1="465.73999"
       x2="59.317001"
       y2="461.85001" />
    <linearGradient
       inkscape:collect="always"
       xlink:href="#linearGradient7117-6"
       id="linearGradient339"
       gradientUnits="userSpaceOnUse"
       gradientTransform="matrix(0.61008874,0,0,0.61008874,537.17444,1667.5074)"
       x1="357.28"
       y1="234.05"
       x2="125.84"
       y2="233.07001" />
    <radialGradient
       inkscape:collect="always"
       xlink:href="#linearGradient7117-6"
       id="radialGradient341"
       gradientUnits="userSpaceOnUse"
       gradientTransform="matrix(0.59001682,0.46521096,-0.49001107,0.62149737,689.10474,1525.9668)"
       cx="295.64001"
       cy="297.92001"
       r="11.454" />
    <radialGradient
       inkscape:collect="always"
       xlink:href="#radialGradient7313"
       id="radialGradient343"
       gradientUnits="userSpaceOnUse"
       gradientTransform="matrix(0.59001682,0.46521096,-0.49001107,0.62149737,708.292,1525.9668)"
       cx="295.64001"
       cy="297.92001"
       r="11.454" />
    <linearGradient
       inkscape:collect="always"
       xlink:href="#linearGradient7304"
       id="linearGradient345"
       gradientUnits="userSpaceOnUse"
       gradientTransform="matrix(0.88096814,0,0,0.66566781,438.99884,1619.657)"
       x1="204.66"
       y1="390.57999"
       x2="223.39"
       y2="390.57999" />
    <linearGradient
       inkscape:collect="always"
       xlink:href="#linearGradient7301"
       id="linearGradient347"
       gradientUnits="userSpaceOnUse"
       gradientTransform="matrix(0.88096814,0,0,0.66566781,546.4794,1619.6039)"
       x1="204.66"
       y1="390.57999"
       x2="223.39"
       y2="390.57999" />
    <linearGradient
       inkscape:collect="always"
       xlink:href="#linearGradient7326"
       id="linearGradient26130"
       gradientUnits="userSpaceOnUse"
       gradientTransform="matrix(0.21740512,0,0,0.0646633,218.75321,1788.8541)"
       x1="389.23999"
       y1="465.73999"
       x2="59.317001"
       y2="461.85001" />
    <radialGradient
       inkscape:collect="always"
       xlink:href="#radialGradient7313"
       id="radialGradient26132"
       gradientUnits="userSpaceOnUse"
       gradientTransform="matrix(0.59001682,0.46521096,-0.49001107,0.62149737,293.62938,1525.9668)"
       cx="295.64001"
       cy="297.92001"
       r="11.454" />
    <linearGradient
       inkscape:collect="always"
       xlink:href="#linearGradient7304"
       id="linearGradient26134"
       gradientUnits="userSpaceOnUse"
       gradientTransform="matrix(0.88096814,0,0,0.66566781,24.336233,1619.657)"
       x1="204.66"
       y1="390.57999"
       x2="223.39"
       y2="390.57999" />
    <linearGradient
       inkscape:collect="always"
       xlink:href="#linearGradient7301"
       id="linearGradient26136"
       gradientUnits="userSpaceOnUse"
       gradientTransform="matrix(0.88096814,0,0,0.66566781,131.81678,1619.6039)"
       x1="204.66"
       y1="390.57999"
       x2="223.39"
       y2="390.57999" />
  </defs>
  <g
     inkscape:label="Layer 1"
     inkscape:groupmode="layer"
     id="layer1"
     transform="translate(25.904828,-118.03917)">
    <g
       transform="matrix(0.16190729,0,0,0.16190729,108.03013,-17.780799)"
       inkscape:label="Ebene 1"
       id="layer1-8">
      <g
         id="g3780">
        <g
           transform="matrix(1.294,0,0,1.294,-14.25,-262.47)"
           id="g3847">
          <g
             transform="translate(0.24122,-0.21897)"
             id="g3003">
            <g
               id="g3116">
              <g
                 id="g3854">
                <path
                   d="m 134,856.82 c 0,0 -0.48426,0.43677 -1.039,1.021 -0.55475,0.58422 -1.1738,1.3058 -1.4806,1.9232 -0.23835,0.47966 -0.37988,1.1556 -0.46755,1.7333 -0.0877,0.57769 -0.12988,1.0447 -0.12988,1.0447 v 0.0237 0.85477 0.87852 0.85476 3.4428 3.4428 3.4428 3.4428 3.4428 3.4428 3.4191 3.4428 3.4428 3.4428 3.4428 3.4428 3.4428 3.4428 3.4428 3.4428 3.4428 3.4428 3.4428 3.4428 3.4428 3.4428 3.4428 3.4428 3.4191 3.4428 3.4428 3.4428 3.4428 3.4428 3.4429 0.0238 c 0,0 0.0237,0.0207 0.0259,0.0469 0.002,0.0207 -7.4e-4,0.0683 0,0.11872 7.8e-4,0.0533 0.003,0.11492 0,0.19002 -0.004,0.0779 -0.0145,0.16283 -0.0259,0.26113 -0.0115,0.099 -0.0289,0.21195 -0.052,0.3325 -0.0229,0.1204 -0.0658,0.23969 -0.1039,0.37987 -0.0381,0.14018 -0.0732,0.29308 -0.12988,0.45107 -0.0566,0.15799 -0.12895,0.3244 -0.2078,0.49867 -0.0788,0.17404 -0.15513,0.35754 -0.25975,0.54604 -0.1046,0.1885 -0.22958,0.3925 -0.36365,0.59364 -0.13405,0.20114 -0.30033,0.40537 -0.46755,0.61724 -0.16719,0.21202 -0.3414,0.42016 -0.54548,0.64116 -0.20407,0.22101 -0.43074,0.43661 -0.67535,0.66484 -0.24463,0.22824 -0.51629,0.47865 -0.80523,0.71229 -0.28893,0.23364 -0.59819,0.45139 -0.9351,0.68861 -0.33692,0.23713 -0.70235,0.47356 -1.091,0.7122 -0.3886,0.23881 -0.80278,0.49756 -1.2468,0.73613 -0.44401,0.23841 -0.89964,0.47611 -1.4027,0.71229 -0.50302,0.23618 -1.0447,0.45655 -1.6104,0.6886 -0.5657,0.23198 -1.1603,0.4626 -1.7923,0.68853 -0.63202,0.22577 -1.2982,0.44702 -2.0001,0.66484 -0.70188,0.21783 -1.4325,0.43327 -2.2079,0.64109 -0.77541,0.20781 -1.5892,0.42134 -2.4417,0.61732 -0.85253,0.19589 -1.7422,0.38765 -2.6754,0.56987 -0.93319,0.18207 -1.9177,0.35595 -2.9352,0.52244 -1.0175,0.16633 -2.0897,0.32606 -3.1949,0.47483 -1.1053,0.14877 -2.232,0.27441 -3.4287,0.40355 -1.1967,0.12921 -2.4487,0.24842 -3.7404,0.35626 -1.2917,0.10776 -2.6358,0.20042 -4.0261,0.2849 -1.3903,0.0844 -2.8194,0.15433 -4.3119,0.21361 -1.4925,0.0596 -3.0513,0.11055 -4.6495,0.14249 -1.5983,0.0318 -3.2537,0.0445 -4.9612,0.0469 -1.7084,0 -3.3635,0 -4.9612,-0.0238 -1.5982,-0.027 -3.1312,-0.0636 -4.6236,-0.11873 -1.4925,-0.0548 -2.9216,-0.13327 -4.3119,-0.21377 -1.3903,-0.0804 -2.7344,-0.18056 -4.0261,-0.2849 -1.2917,-0.10442 -2.5437,-0.20591 -3.7404,-0.33234 -1.1967,-0.12644 -2.3494,-0.25709 -3.4547,-0.40371 -1.1052,-0.14654 -2.1515,-0.31017 -3.169,-0.47483 -1.0174,-0.16474 -2.002,-0.34148 -2.9352,-0.52236 -0.93314,-0.18103 -1.823,-0.37462 -2.6754,-0.56987 -0.85243,-0.19518 -1.6663,-0.38607 -2.4417,-0.59356 -0.77534,-0.20758 -1.506,-0.42318 -2.2079,-0.64108 -0.70187,-0.21791 -1.3682,-0.43852 -2.0001,-0.66485 -0.63195,-0.22633 -1.2266,-0.45584 -1.7923,-0.68852 -0.56569,-0.23285 -1.1075,-0.47507 -1.6105,-0.71237 -0.50301,-0.23722 -0.9847,-0.47261 -1.4286,-0.71221 -0.44396,-0.23976 -0.85823,-0.47221 -1.2468,-0.71244 -0.38858,-0.24008 -0.75408,-0.49717 -1.091,-0.73597 -0.3369,-0.23873 -0.64622,-0.4769 -0.9351,-0.71237 -0.28891,-0.23539 -0.56061,-0.45846 -0.80523,-0.68853 -0.24465,-0.23014 -0.44532,-0.46553 -0.64938,-0.68852 -0.20408,-0.22307 -0.40422,-0.42715 -0.57145,-0.64108 -0.16721,-0.21386 -0.30745,-0.43796 -0.44158,-0.64109 -0.13411,-0.20312 -0.25898,-0.40315 -0.36365,-0.59356 -0.10467,-0.19056 -0.20685,-0.37009 -0.28573,-0.54619 -0.07887,-0.17611 -0.12514,-0.3387 -0.18183,-0.49851 -0.05669,-0.16006 -0.11778,-0.30938 -0.15585,-0.45123 -0.03809,-0.14194 -0.05491,-0.28149 -0.07793,-0.40355 -0.02302,-0.12215 -0.04044,-0.23205 -0.05195,-0.3325 -0.01151,-0.10045 -0.02247,-0.18421 -0.02597,-0.26114 -0.0035,-0.0771 -9.98e-4,-0.13828 0,-0.18993 9.97e-4,-0.0517 -0.0019,-0.0947 0,-0.11881 0.0019,-0.0246 0,-0.0238 0,-0.0238 v -0.0238 -0.0238 -3.4428 -3.4428 -3.4428 -3.4428 -3.4428 -3.4428 -3.4191 -3.4428 -3.4428 -3.4428 -3.4428 -3.4428 -3.4428 -3.4428 -3.4428 -3.4428 -3.4428 -3.4428 -3.4428 -3.4428 -3.4428 -3.4428 -3.4428 -3.4428 -3.4191 -3.4428 -3.4428 -3.4428 -3.4428 -3.4428 -3.4428 -0.85477 -0.87851 -0.85477 -0.0237 c 0,0 -0.03101,-0.49804 -0.12988,-1.116 -0.09887,-0.61791 -0.26167,-1.3442 -0.5195,-1.852 -0.29151,-0.57406 -0.85751,-1.2202 -1.3767,-1.757 -0.51917,-0.53681 -0.98705,-0.94974 -0.98705,-0.94974 l -0.46755,0.42738 c 0,0 0.45855,0.40639 0.96108,0.92601 0.50253,0.51961 1.0483,1.1725 1.2728,1.6146 0.1908,0.37574 0.34635,1.0906 0.44158,1.6858 0.09315,0.5822 0.15412,1.0241 0.15585,1.0447 3.8e-5,4.7e-4 0,0.0237 0,0.0237 v 0.83102 0.87851 0.85477 3.4428 3.4428 3.4428 3.4428 3.4428 3.4428 3.4191 3.4428 3.4428 3.4428 3.4428 3.4428 3.4428 3.4428 3.4428 3.4428 3.4428 3.4428 3.4428 3.4428 3.4428 3.4428 3.4428 3.4428 3.4191 3.4428 3.4428 3.4428 3.4428 3.4428 3.4191 0.0238 c -0.0012,0.0103 -0.02432,0 -0.02597,0.0238 -0.0027,0.035 0.0012,0.0798 0,0.14233 -0.0012,0.0628 -0.0042,0.14813 0,0.23753 0.0041,0.0892 0.01298,0.19518 0.02597,0.30866 0.01299,0.11333 0.05233,0.24413 0.07793,0.37987 0.02559,0.13581 0.03607,0.27147 0.07793,0.42739 0.04185,0.156 0.09411,0.32439 0.15585,0.49867 0.06174,0.17404 0.14852,0.35563 0.23378,0.54604 0.08525,0.19033 0.17338,0.389 0.28573,0.59364 0.11235,0.20447 0.24663,0.42444 0.38963,0.641 0.14298,0.21655 0.29036,0.43819 0.46755,0.66484 0.17717,0.22673 0.38263,0.45385 0.59743,0.68861 0.21482,0.23467 0.44542,0.47157 0.70133,0.7122 0.25593,0.24088 0.5307,0.46745 0.8312,0.71245 0.30053,0.24485 0.63846,0.51266 0.98705,0.75973 0.34862,0.24715 0.71676,0.48874 1.1169,0.73605 0.40017,0.24739 0.81754,0.49025 1.2728,0.73605 0.45527,0.2458 0.94076,0.49366 1.4546,0.73605 0.5139,0.24238 1.0604,0.47523 1.6364,0.71228 0.57604,0.23698 1.1765,0.48246 1.8183,0.71237 0.64182,0.22983 1.3149,0.444 2.0261,0.66476 0.71112,0.22085 1.4758,0.43121 2.2598,0.64117 0.78405,0.2098 1.607,0.42023 2.4676,0.61724 0.86059,0.19716 1.7607,0.38741 2.7014,0.56987 0.94072,0.18239 1.9107,0.35651 2.9352,0.52244 1.0245,0.16577 2.0831,0.32733 3.1949,0.47483 1.1118,0.14742 2.2778,0.27656 3.4807,0.40363 1.2028,0.12707 2.443,0.2512 3.7404,0.35618 1.2974,0.10482 2.6565,0.20408 4.0521,0.2849 1.3956,0.0808 2.8404,0.1351 4.3378,0.18993 1.4975,0.0548 3.0467,0.092 4.6495,0.11873 1.6033,0.0262 3.2502,0.0469 4.9612,0.0469 1.7119,0 3.3844,-0.0151 4.9872,-0.0469 1.6028,-0.0318 3.1521,-0.0831 4.6495,-0.14249 1.4974,-0.0596 2.9423,-0.1289 4.3378,-0.21369 1.3956,-0.0847 2.7287,-0.17659 4.0261,-0.28498 1.2974,-0.10816 2.5636,-0.22633 3.7664,-0.35611 1.2028,-0.12985 2.3429,-0.27766 3.4547,-0.42738 1.1118,-0.14957 2.1705,-0.30739 3.1949,-0.47484 1.0244,-0.16752 2.0205,-0.33877 2.9612,-0.52235 0.94068,-0.18365 1.8409,-0.37216 2.7014,-0.56988 0.86054,-0.1978 1.6836,-0.4072 2.4676,-0.61732 0.78401,-0.21012 1.5228,-0.44407 2.2339,-0.66484 0.71111,-0.22061 1.3844,-0.4355 2.0261,-0.66477 0.64172,-0.22943 1.2682,-0.45242 1.8442,-0.68852 0.57599,-0.23627 1.0966,-0.49486 1.6105,-0.73613 0.51384,-0.24119 0.99942,-0.468 1.4546,-0.71229 0.4552,-0.24445 0.89862,-0.49025 1.2988,-0.73605 0.40014,-0.2458 0.76836,-0.49072 1.1169,-0.73604 0.34856,-0.24541 0.66059,-0.49311 0.96108,-0.73613 0.30049,-0.24294 0.57528,-0.49724 0.8312,-0.73597 0.25595,-0.23881 0.5125,-0.456 0.7273,-0.68861 0.2148,-0.23268 0.39426,-0.46386 0.57146,-0.68852 0.17718,-0.22466 0.35047,-0.4502 0.49352,-0.66485 0.14304,-0.21456 0.25123,-0.41467 0.36365,-0.61732 0.1124,-0.20249 0.22641,-0.40513 0.31171,-0.59364 0.0853,-0.18842 0.14601,-0.3735 0.2078,-0.54603 0.0618,-0.17253 0.11395,-0.34426 0.15585,-0.49867 0.0419,-0.15433 0.0783,-0.29301 0.1039,-0.42731 0.0257,-0.13447 0.039,-0.26766 0.052,-0.37995 0.0131,-0.113 0.0216,-0.19843 0.0259,-0.2849 0.004,-0.089 8.3e-4,-0.1765 0,-0.23753 -8.3e-4,-0.062 0.003,-0.10522 0,-0.14233 -0.002,-0.0151 8.3e-4,-0.0151 0,-0.0238 v -0.0238 -3.4191 -3.4428 -3.4428 -3.4428 -3.4428 -3.4428 -3.4191 -3.4428 -3.4428 -3.4428 -3.4428 -3.4428 -3.4428 -3.4428 -3.4428 -3.4428 -3.4428 -3.4428 -3.4428 -3.4428 -3.4428 -3.4428 -3.4428 -3.4428 -3.4191 -3.4428 -3.4428 -3.4428 -3.4428 -3.4428 -3.4428 -0.85477 -0.87851 -0.83102 -0.0237 c 0.002,-0.0207 0.0216,-0.43159 0.1039,-0.97348 0.0842,-0.555 0.24291,-1.2195 0.4156,-1.5671 0.24113,-0.48527 0.83836,-1.2138 1.3767,-1.7808 0.53833,-0.56692 1.013,-0.99722 1.013,-0.99722 l -0.46755,-0.42739 z"
                   inkscape:connector-curvature="0"
                   style="color:#000000;text-indent:0;text-transform:none;fill:#000000"
                   id="path2986" />
                <g
                   transform="matrix(0.80299,0,0,0.92363,6.8448,77.84)"
                   id="g3834">
                  <path
                     transform="matrix(1.0946,0,0,1,-10.417,789.03)"
                     inkscape:connector-curvature="0"
                     sodipodi:nodetypes="sssssssssssssssssssssssssssssssssssssssssssssssssssssssssssssssss"
                     d="m 154.75,54.129 c 0,0.18516 -0.11115,0.36812 -0.32814,0.54845 -0.21698,0.18033 -0.53979,0.35801 -0.9631,0.53261 -0.42332,0.1746 -0.94714,0.3461 -1.5661,0.51407 -0.619,0.16797 -1.3332,0.33239 -2.1372,0.49283 -0.80404,0.16044 -1.6979,0.31689 -2.6764,0.4689 -0.97842,0.15201 -2.0414,0.29958 -3.1835,0.44227 -1.1422,0.14269 -2.3635,0.28048 -3.6588,0.41295 -1.2952,0.13246 -2.6644,0.25959 -4.1021,0.38093 -1.4377,0.12134 -2.9439,0.23689 -4.5134,0.34621 -1.5695,0.10932 -3.2022,0.2124 -4.8928,0.3088 -1.6906,0.0964 -3.4391,0.18611 -5.2402,0.26869 -1.8011,0.08258 -3.6548,0.15802 -5.5558,0.22588 -1.901,0.06786 -3.8492,0.12814 -5.8393,0.18038 -1.9902,0.05224 -4.0222,0.09645 -6.0909,0.13218 -2.0687,0.03573 -4.174,0.06297 -6.3106,0.08129 -2.1366,0.01831 -4.3045,0.02769 -6.4983,0.02769 -2.1938,0 -4.3617,-0.0094 -6.4983,-0.02769 -2.1366,-0.01831 -4.2419,-0.04556 -6.3106,-0.08129 -2.0687,-0.03573 -4.1008,-0.07994 -6.0909,-0.13218 -1.9901,-0.05224 -3.9384,-0.11252 -5.8393,-0.18038 -1.901,-0.06786 -3.7546,-0.1433 -5.5558,-0.22588 -1.8011,-0.08258 -3.5496,-0.17229 -5.2402,-0.26869 -1.6906,-0.0964 -3.3233,-0.19948 -4.8928,-0.3088 -1.5695,-0.10932 -3.0757,-0.22487 -4.5134,-0.34621 -1.4377,-0.12134 -2.8068,-0.24846 -4.1021,-0.38093 -1.2952,-0.13246 -5.2323,5.783 -6.2808,6.2992 -1.0308,0.50751 -0.83415,0.3648 -1.6641,-0.31549 -0.79102,-0.64841 -0.76978,-7.1474 -1.5738,-7.3078 -0.80403,-0.16044 -1.5182,-0.32486 -2.1372,-0.49283 -0.619,-0.16797 -1.1428,-0.33947 -1.5661,-0.51407 -0.42332,-0.1746 -0.74613,-0.35228 -0.96311,-0.53261 -0.21698,-0.18033 -0.32814,-0.36329 -0.32814,-0.54845 0,-0.18516 0.11115,-0.36812 0.32814,-0.54845 0.21698,-0.18032 0.53979,-0.35801 0.96311,-0.53261 0.42332,-0.1746 0.94713,-0.3461 1.5661,-0.51407 0.619,-0.16797 1.3332,-0.33239 2.1372,-0.49283 0.80404,-0.16044 1.6979,-0.31689 2.6763,-0.4689 0.97842,-0.15201 2.0414,-0.29958 3.1835,-0.44227 1.1422,-0.14269 2.3635,-0.28048 3.6588,-0.41295 1.2952,-0.13246 2.6644,-0.25959 4.1021,-0.38093 1.4377,-0.12134 2.9439,-0.23689 4.5134,-0.34621 1.5695,-0.10932 3.2022,-0.2124 4.8928,-0.3088 1.6906,-0.0964 3.4391,-0.18611 5.2402,-0.26869 1.8011,-0.08258 3.6548,-0.15802 5.5558,-0.22588 1.901,-0.06786 3.8492,-0.12814 5.8393,-0.18038 1.9901,-0.05224 4.0222,-0.09645 6.0909,-0.13218 2.0687,-0.03573 4.174,-0.06297 6.3106,-0.08129 2.1366,-0.01831 4.3045,-0.02769 6.4983,-0.02769 2.1938,0 4.3617,0.0094 6.4983,0.02769 2.1366,0.01831 4.2419,0.04556 6.3106,0.08129 2.0687,0.03573 4.1008,0.07994 6.0909,0.13218 1.9901,0.05224 3.9384,0.11252 5.8393,0.18038 1.901,0.06786 3.7546,0.1433 5.5558,0.22588 1.8011,0.08258 3.5496,0.17229 5.2402,0.26869 1.6906,0.0964 3.3233,0.19948 4.8928,0.3088 1.5695,0.10932 3.0757,0.22487 4.5134,0.34621 1.4377,0.12134 2.8068,0.24846 4.1021,0.38093 1.2952,0.13246 2.5166,0.27026 3.6588,0.41295 1.1422,0.14269 2.2051,0.29026 3.1835,0.44227 0.97842,0.15201 1.8723,0.30846 2.6764,0.4689 0.80403,0.16044 1.5182,0.32486 2.1372,0.49283 0.619,0.16797 1.1428,0.33947 1.5661,0.51407 0.42331,0.1746 0.74612,0.35228 0.9631,0.53261 0.21699,0.18033 0.32814,0.36329 0.32814,0.54845 z"
                     style="fill:none;stroke:#000000;stroke-width:0.68616"
                     id="path2994-0" />
                  <path
                     transform="matrix(1.0578,0,0,0.9,-11.265,803.34)"
                     inkscape:connector-curvature="0"
                     sodipodi:nodetypes="sssssssssssssssssssssssssssssssssssssssssssssssssssssssssssssssss"
                     d="m 158.85,44.259 c 0,0.1587 -0.11136,0.31552 -0.32875,0.47008 -0.2174,0.15456 -0.54081,0.30685 -0.96493,0.4565 -0.42411,0.14965 -0.94892,0.29664 -1.5691,0.44061 -0.62017,0.14396 -1.3357,0.28489 -2.1412,0.42241 -0.80555,0.13751 -1.7011,0.2716 -2.6814,0.40189 -0.98026,0.13029 -2.0452,0.25677 -3.1895,0.37907 -1.1443,0.1223 -2.368,0.2404 -3.6657,0.35394 -1.2977,0.11353 -2.6694,0.22249 -4.1098,0.32649 -1.4404,0.104 -2.9495,0.20304 -4.5219,0.29674 -1.5724,0.0937 -3.2082,0.18205 -4.902,0.26467 -1.6938,0.08262 -3.4456,0.15951 -5.2501,0.23029 -1.8045,0.07078 -3.6617,0.13544 -5.5662,0.1936 -1.9045,0.05816 -3.8564,0.10982 -5.8503,0.1546 -1.9939,0.04478 -4.0298,0.08267 -6.1024,0.11329 -2.0726,0.03062 -4.1819,0.05397 -6.3225,0.06967 -2.1406,0.0157 -4.3126,0.02374 -6.5105,0.02374 -2.198,0 -4.3699,-0.008 -6.5105,-0.02374 -2.1406,-0.0157 -4.2499,-0.03905 -6.3225,-0.06967 -2.0726,-0.03062 -4.1085,-0.06851 -6.1024,-0.11329 -1.9939,-0.04478 -3.9458,-0.09644 -5.8503,-0.1546 -1.9045,-0.05816 -3.7617,-0.12282 -5.5662,-0.1936 -1.8045,-0.07078 -3.5563,-0.14767 -5.2501,-0.23029 -1.6938,-0.08262 -3.3296,-0.17097 -4.902,-0.26467 -1.5724,-0.0937 -3.0815,-0.19274 -4.5219,-0.29674 -1.4404,-0.104 -2.8121,-0.21296 -4.1098,-0.32649 -1.2977,-0.11353 -1.5977,-0.10393 -2.742,-0.22623 -1.1443,-0.1223 -4.9802,6.8391 -5.9604,6.7089 -0.98026,-0.13029 -0.78921,-7.6077 -1.5948,-7.7452 -0.80555,-0.13751 -0.76044,-0.15073 -1.3806,-0.2947 -0.62017,-0.14396 -1.145,-0.29096 -1.5691,-0.44061 -0.42411,-0.14964 -0.74753,-0.30194 -0.96492,-0.4565 -0.21739,-0.15456 -0.32875,-0.31138 -0.32875,-0.47008 0,-0.1587 0.11136,-0.31552 0.32875,-0.47008 0.21739,-0.15456 0.54081,-0.30685 0.96492,-0.4565 0.42411,-0.14964 0.94892,-0.29664 1.5691,-0.44061 0.62017,-0.14396 1.3357,-0.28489 2.1412,-0.4224 0.80555,-0.13751 1.7011,-0.2716 2.6814,-0.40189 0.98026,-0.13029 2.0452,-0.25677 3.1895,-0.37907 1.1443,-0.1223 2.368,-0.2404 3.6657,-0.35394 1.2977,-0.11353 2.6694,-0.22249 4.1098,-0.32649 1.4404,-0.104 2.9495,-0.20304 4.5219,-0.29674 1.5724,-0.09369 3.2082,-0.18205 4.902,-0.26467 1.6938,-0.08262 3.4456,-0.15951 5.2501,-0.23029 1.8045,-0.07078 3.6617,-0.13544 5.5662,-0.1936 1.9045,-0.05816 3.8564,-0.10982 5.8503,-0.1546 1.9939,-0.04478 4.0298,-0.08267 6.1024,-0.11329 2.0726,-0.03062 4.1819,-0.05397 6.3225,-0.06967 2.1406,-0.0157 4.3126,-0.02374 6.5105,-0.02374 2.198,0 4.3699,0.008 6.5105,0.02374 2.1406,0.0157 4.2499,0.03905 6.3225,0.06967 2.0726,0.03062 4.1085,0.06851 6.1024,0.11329 1.9939,0.04478 3.9458,0.09644 5.8503,0.1546 1.9045,0.05816 3.7617,0.12282 5.5662,0.1936 1.8045,0.07078 3.5563,0.14767 5.2501,0.23029 1.6938,0.08262 3.3296,0.17097 4.902,0.26467 1.5724,0.0937 3.0815,0.19274 4.5219,0.29674 1.4404,0.104 2.8121,0.21296 4.1098,0.32649 1.2977,0.11353 2.5214,0.23164 3.6657,0.35394 1.1443,0.1223 2.2093,0.24878 3.1895,0.37907 0.98027,0.13029 1.8758,0.26438 2.6814,0.40189 0.80555,0.13751 1.5211,0.27844 2.1412,0.4224 0.62016,0.14396 1.145,0.29096 1.5691,0.44061 0.42412,0.14965 0.74753,0.30194 0.96493,0.4565 0.21739,0.15456 0.32875,0.31138 0.32875,0.47008 z"
                     style="fill:none;stroke:#000000;stroke-width:0.73578"
                     id="path3063" />
                </g>
                <path
                   d="m 30.226,865.52 c -0.11861,-0.18843 1.0331,-1.1615 2.7451,-0.82542 1.5778,0.30973 1.738,3.4122 1.738,3.4122"
                   inkscape:connector-curvature="0"
                   style="fill:none;stroke:#000000;stroke-width:0.61825"
                   sodipodi:nodetypes="csc"
                   id="path3845" />
              </g>
              <g
                 transform="matrix(3.0743,0,0,0.64919,-113.67,320.57)"
                 style="fill:#a8c7ff"
                 id="g3878">
                <path
                   d="m 79.336,953.24 v 50.022 c 0,0 0.67518,22.32 -16.784,22.461 -17.459,0.1413 -16.784,-22.461 -16.784,-22.461 V 953.24"
                   inkscape:connector-curvature="0"
                   style="fill:#a8c7ff;stroke:#000000;stroke-width:0.43763"
                   sodipodi:nodetypes="ccscc"
                   id="path3862" />
                <ellipse
                   transform="matrix(1.3536,0,0,2.7328,-26.44,906.28)"
                   style="fill:#a8c7ff;stroke:#000000;stroke-width:0.21147"
                   id="path3840"
                   cx="65.7453"
                   cy="17.13291"
                   rx="12.413448"
                   ry="2.5286653" />
              </g>
              <g
                 transform="translate(-7.7281)"
                 id="g3013">
                <path
                   inkscape:connector-curvature="0"
                   style="fill:none;stroke:#000000;stroke-width:0.38641"
                   sodipodi:nodetypes="cc"
                   d="m 112.35,874.93 c -1.9722,0.85664 -8.7293,1.2521 -10.974,0.90994"
                   id="path3760" />
                <path
                   inkscape:connector-curvature="0"
                   style="fill:none;stroke:#000000;stroke-width:0.38641"
                   sodipodi:nodetypes="cc"
                   d="m 112.35,887.16 c -1.9722,0.85663 -8.7293,1.2521 -10.974,0.90994"
                   id="path3760-17" />
                <path
                   inkscape:connector-curvature="0"
                   style="fill:none;stroke:#000000;stroke-width:0.38641"
                   sodipodi:nodetypes="cc"
                   d="m 112.35,899.39 c -1.9722,0.85663 -8.7292,1.2521 -10.974,0.90993"
                   id="path3760-4" />
                <path
                   inkscape:connector-curvature="0"
                   style="fill:none;stroke:#000000;stroke-width:0.38641"
                   sodipodi:nodetypes="cc"
                   d="m 112.35,911.62 c -1.9722,0.85664 -8.7293,1.2521 -10.974,0.90994"
                   id="path3760-0" />
                <path
                   inkscape:connector-curvature="0"
                   style="fill:none;stroke:#000000;stroke-width:0.38641"
                   sodipodi:nodetypes="cc"
                   d="m 112.35,923.85 c -1.9722,0.85663 -8.7293,1.2521 -10.974,0.90993"
                   id="path3760-9" />
                <path
                   inkscape:connector-curvature="0"
                   style="fill:none;stroke:#000000;stroke-width:0.38641"
                   sodipodi:nodetypes="cc"
                   d="m 112.35,936.08 c -1.9722,0.85664 -8.7293,1.2521 -10.974,0.90994"
                   id="path3760-48" />
                <path
                   inkscape:connector-curvature="0"
                   style="fill:none;stroke:#000000;stroke-width:0.38641"
                   sodipodi:nodetypes="cc"
                   d="m 112.35,948.31 c -1.9722,0.85663 -8.7293,1.2521 -10.974,0.90994"
                   id="path3760-8" />
                <path
                   inkscape:connector-curvature="0"
                   style="fill:none;stroke:#000000;stroke-width:0.38641"
                   sodipodi:nodetypes="cc"
                   d="m 112.35,960.54 c -1.9722,0.85663 -8.7293,1.2521 -10.974,0.90993"
                   id="path3760-2" />
                <path
                   inkscape:connector-curvature="0"
                   style="fill:none;stroke:#000000;stroke-width:0.38641"
                   sodipodi:nodetypes="cc"
                   d="m 112.35,972.77 c -1.9722,0.85663 -8.7293,1.2521 -10.974,0.90994"
                   id="path3760-45" />
              </g>
            </g>
          </g>
        </g>
      </g>
    </g>
    <g
       id="g54409"
       transform="matrix(0.18800282,0,0,0.18800282,-56.183128,-0.76191871)">
      <rect
         x="825.83716"
         y="804.8728"
         width="246.46895"
         height="91.744057"
         ry="18.316761"
         rx="21.159302"
         style="fill:#d7c200;fill-rule:evenodd;stroke:#898989;stroke-width:0.7964;stroke-linecap:round;stroke-linejoin:round"
         id="rect3015-7" />
      <rect
         x="831.81824"
         y="810.51709"
         width="234.27206"
         height="80.796463"
         ry="13.382893"
         rx="15.28234"
         style="fill:#b0d2ff;fill-rule:evenodd;stroke:#878787;stroke-width:0.791042;stroke-linecap:round;stroke-linejoin:round"
         id="rect3015-2-3" />
      <rect
         x="888.59753"
         y="795.2276"
         width="120.70324"
         height="9.116024"
         ry="0"
         rx="0"
         style="fill:url(#linearGradient26130);fill-rule:evenodd;stroke:#515151;stroke-width:0.388586;stroke-linecap:round;stroke-linejoin:bevel;stroke-miterlimit:3.5"
         id="rect7178" />
      <rect
         x="837.96259"
         y="777.90698"
         width="221.98332"
         height="17.998318"
         ry="3.9212735"
         rx="7.9949307"
         style="fill:url(#linearGradient7323);fill-rule:evenodd;stroke:#515151;stroke-width:0.755482;stroke-linecap:round;stroke-linejoin:bevel;stroke-miterlimit:3.5"
         id="rect7168" />
      <rect
         x="841.86151"
         y="826.41895"
         width="136.09479"
         height="44.883518"
         ry="0"
         rx="0"
         style="fill:#ffffff;fill-opacity:0.72222;fill-rule:evenodd;stroke:#515151;stroke-width:1.12232;stroke-linecap:round;stroke-linejoin:bevel;stroke-miterlimit:3.5"
         id="rect7215" />
      <text
         xml:space="preserve"
         x="820.7868"
         y="857.3443"
         style="font-size:6.1703px;line-height:125%;font-family:Sans;letter-spacing:0px;word-spacing:0px;fill:#000000"
         id="text7217">           <tspan
   y="857.3443"
   style="font-weight:bold;font-size:27.7671px;font-family:Courier"
   x="820.7868"
   sodipodi:role="line"
   id="tspan7219">004,57<tspan
   style="font-weight:bold;font-size:15.4263px"
   id="tspan7225">g</tspan></tspan>         </text>
      <rect
         x="992.81714"
         y="838.96289"
         width="22.624968"
         height="19.796719"
         style="fill:url(#radialGradient7316);fill-rule:evenodd;stroke:#515151;stroke-width:0.755482;stroke-linecap:round;stroke-linejoin:bevel;stroke-miterlimit:3.5"
         id="rect7227" />
      <rect
         x="1024.9169"
         y="838.96289"
         width="22.624968"
         height="19.796719"
         style="fill:url(#radialGradient26132);fill-rule:evenodd;stroke:#515151;stroke-width:0.755482;stroke-linecap:round;stroke-linejoin:bevel;stroke-miterlimit:3.5"
         id="rect7227-9" />
      <path
         inkscape:connector-curvature="0"
         style="fill:url(#linearGradient26134);fill-rule:evenodd"
         sodipodi:nodetypes="ccccc"
         d="m 843.88243,897.08946 h 26.42896 l -2.94766,8.67714 h -20.53364 z"
         id="rect3811-3" />
      <path
         inkscape:connector-curvature="0"
         style="fill:url(#linearGradient26136);fill-rule:evenodd"
         sodipodi:nodetypes="ccccc"
         d="m 1023.6921,896.9976 h 26.4289 l -2.9476,8.67714 h -20.5337 z"
         id="rect3811-6-9" />
      <text
         id="text54405"
         y="849.32153"
         x="995.50531"
         style="font-style:normal;font-weight:normal;font-size:6.6637px;line-height:125%;font-family:sans-serif;letter-spacing:0px;word-spacing:0px;fill:#000000;fill-opacity:1;stroke:none;stroke-width:1px;stroke-linecap:butt;stroke-linejoin:miter;stroke-opacity:1"
         xml:space="preserve"><tspan
           y="849.32153"
           x="995.50531"
           id="tspan54407"
           sodipodi:role="line">TARE</tspan></text>
    </g>
    <g
       id="g54666"
       transform="matrix(1.6729696,0,0,1.6729696,19.863958,133.20787)">
      <path
         inkscape:connector-curvature="0"
         id="path54649"
         d="m 22.912917,3.175 -0.440973,0.070556 -0.987777,0.088194 -1.005417,0.1058333 -1.058333,0.070556 -1.093611,0.070556 -1.164167,0.035278 -1.181806,0.052917 -1.234722,0.017639 L 13.49375,3.7041667 12.170833,3.6865278 10.918472,3.6688889 9.7013889,3.6159722 8.5372222,3.5806944 7.4083333,3.4925 6.3323611,3.4219444 5.3093056,3.3161111 4.3391667,3.2102778 4.0745833,3.175 3.4572222,3.0691667 2.9104167,2.9986111 1.9755556,2.8222222 1.5698611,2.7163889 1.2170833,2.6281944 0.91722222,2.5223611 0.68791667,2.4341667 l 0.21166666,0.3175 0.28222227,0.3351389 0.3351388,0.2998611 0.4233334,0.3175 0.4586111,0.2822222 0.5291667,0.2998611 0.5820833,0.2822222 0.6526389,0.2822222 0.9701389,0.3351389 1.0230555,0.2998611 1.0759722,0.2469445 1.1465278,0.2293055 1.1641667,0.15875 1.2347221,0.1234723 1.287639,0.070556 1.340556,0.035278 1.305277,-0.035278 1.287639,-0.070556 1.217084,-0.1234723 1.199444,-0.15875 1.11125,-0.2293055 1.093611,-0.2469445 1.023056,-0.2998611 0.987777,-0.3351389 0.599723,-0.2822222 0.564444,-0.2645833 0.511528,-0.2822222 0.47625,-0.2645834 0.388055,-0.3175 0.352778,-0.2822222 0.299861,-0.3175 L 26.070278,2.54 25.788056,2.6105556 25.488194,2.69875 24.782639,2.8751389 24.359306,2.9456944 23.918333,3.01625 23.424444,3.0868056 Z"
         style="fill:#ffffff;fill-opacity:1;fill-rule:evenodd;stroke:none" />
      <path
         inkscape:connector-curvature="0"
         id="path54651"
         d="m 22.471944,3.4071958 0.440973,-0.070556 0.511527,-0.088194 0.493889,-0.070556 0.440973,-0.070556 0.423333,-0.070556 0.705555,-0.1763889 0.299862,-0.088194 0.282222,-0.070556 0.123472,-0.2645833 0.105833,-0.2469445 0.0882,-0.2645833 0.05292,-0.2469445 L 26.19375,1.5551124 25.893889,1.4492791 25.541111,1.3434458 25.135417,1.2376124 24.659167,1.1317791 24.13,1.0259458 23.547917,0.92011247 22.912917,0.84955687 21.889861,0.70844576 20.849167,0.60261242 19.737917,0.51441802 18.591389,0.46150132 17.374306,0.39094582 16.139583,0.35566802 14.834306,0.33802912 H 13.49375 12.117917 L 10.812639,0.35566802 9.5602778,0.39094581 8.3608333,0.46150136 7.1966667,0.51441803 6.1030556,0.60261247 5.0623611,0.70844581 4.0745833,0.84955692 3.33375,0.93775136 2.69875,1.0435847 2.1343056,1.149418 1.6404167,1.2728902 1.2170833,1.3787235 0.86430556,1.5198346 0.58208333,1.6433069 0.38805556,1.784418 l 0.10583333,0.4056944 0.19402778,0.4056945 0.22930555,0.088194 0.29986108,0.1058333 0.3527778,0.088195 0.4056945,0.1058333 0.9348611,0.1763889 0.5468055,0.070556 0.6173611,0.1058333 0.2645834,0.035278 0.9701389,0.1058333 1.0230555,0.1058333 1.0759722,0.070556 1.1288889,0.088194 1.1641667,0.035278 1.2170831,0.052917 1.252361,0.017639 1.322917,0.017639 1.252361,-0.017639 1.234722,-0.017639 1.181806,-0.052917 1.164167,-0.035278 1.093611,-0.070556 1.058333,-0.070556 1.005417,-0.1058333 z"
         style="fill:#e0e0e0;fill-opacity:1;fill-rule:evenodd;stroke:none" />
      <path
         inkscape:connector-curvature="0"
         id="path54653"
         d="m 22.471944,3.4047965 -0.987777,0.088194 -1.005417,0.1058333 -1.058333,0.070556 -1.093611,0.070556 -1.164167,0.035278 -1.181806,0.052917 -1.234722,0.017639 L 13.49375,3.8634076 12.170833,3.8457687 10.918472,3.8281298 9.7013889,3.7752131 8.5372222,3.7399353 7.4083333,3.6517409 6.3323611,3.5811853 5.3093056,3.475352 4.3391667,3.3695187 4.0745833,3.3342409 3.4572222,3.2284076 2.9104167,3.157852 1.9755556,2.9814631 1.5698611,2.8756298 1.2170833,2.7874353 0.91722222,2.681602 0.68791667,2.5934076 l 0.21166666,0.3175 0.28222227,0.3351389 0.3351388,0.2998611 0.4233334,0.3175 0.4586111,0.2822222 0.5291667,0.2998611 0.5820833,0.2822222 0.6526389,0.2822222 0.9701389,0.3351389 1.0230555,0.2998611 1.0759722,0.2469445 1.1465278,0.2293055 1.1641667,0.15875 1.2347221,0.1234723 1.287639,0.070556 1.340556,0.035278 1.305277,-0.035278 1.287639,-0.070556 1.217084,-0.1234723 1.199444,-0.15875 1.11125,-0.2293055 1.093611,-0.2469445 1.023056,-0.2998611 0.987777,-0.3351389 0.599723,-0.2822222 0.564444,-0.2645833 0.511528,-0.2822222 0.47625,-0.2645834 0.388055,-0.3175 0.352778,-0.2822222 0.299861,-0.3175 0.246945,-0.2998611 -0.282222,0.070556 -0.299862,0.088194 -0.705555,0.1763889 -0.423333,0.070556 -0.440973,0.070556 -0.493889,0.070556 -0.511527,0.088194 -0.440973,0.070556"
         style="fill:none;stroke:#000000;stroke-width:0.352778px;stroke-linecap:round;stroke-linejoin:round;stroke-miterlimit:4;stroke-dasharray:none;stroke-opacity:1" />
      <path
         inkscape:connector-curvature="0"
         id="path54655"
         d="M 0.68791667,2.4341667 0.44097222,2.2930556 0.29986111,2.1872222 0.19402778,2.0461111 0.17638889,1.9402778 0.22930556,1.7638889 0.38805556,1.6227778 0.58208333,1.4816667 0.86430556,1.3581944 1.2170833,1.2170833 1.6404167,1.11125 2.1343056,0.98777778 2.69875,0.88194444 3.33375,0.77611111 4.0745833,0.68791667 5.0623611,0.54680556 6.1030556,0.44097222 7.1966667,0.35277782 8.3608333,0.29986112 9.5602778,0.22930562 10.812639,0.19402782 12.117917,0.17638892 h 1.375833 1.340556 l 1.305277,0.0176389 1.234723,0.0352778 1.217083,0.0705555 1.146528,0.0529167 1.11125,0.0881944 1.040694,0.10583334 1.023056,0.14111111 0.635,0.0705556 0.582083,0.10583334 0.529167,0.10583333 0.47625,0.10583336 0.405694,0.1058334 0.352778,0.1058333 0.299861,0.1058333 0.246944,0.1234722 0.141112,0.088194 0.123472,0.1058334 0.07055,0.1058334 0.03528,0.1234722 -0.05292,0.1411111 -0.141111,0.15875 L 26.387778,2.38125 26.070278,2.54"
         style="fill:none;stroke:#000000;stroke-width:0.352778px;stroke-linecap:round;stroke-linejoin:round;stroke-miterlimit:4;stroke-dasharray:none;stroke-opacity:1" />
      <path
         inkscape:connector-curvature="0"
         id="path54657"
         d="m 26.440694,1.5169444 -0.05292,0.2469445 -0.0882,0.2645833 L 26.19375,2.2754167 26.070278,2.54"
         style="fill:none;stroke:#000000;stroke-width:0.352778px;stroke-linecap:round;stroke-linejoin:round;stroke-miterlimit:4;stroke-dasharray:none;stroke-opacity:1" />
      <path
         inkscape:connector-curvature="0"
         id="path54659"
         d="M 0.68791667,2.4341667 0.49388889,2.0284722 0.38805556,1.6227778"
         style="fill:none;stroke:#000000;stroke-width:0.352778px;stroke-linecap:round;stroke-linejoin:round;stroke-miterlimit:4;stroke-dasharray:none;stroke-opacity:1" />
    </g>
    <g
       id="g335"
       transform="matrix(0.18800282,0,0,0.18800282,-134.14087,-0.76191871)">
      <rect
         x="825.83716"
         y="804.8728"
         width="246.46895"
         height="91.744057"
         ry="18.316761"
         rx="21.159302"
         style="fill:#d7c200;fill-rule:evenodd;stroke:#898989;stroke-width:0.7964;stroke-linecap:round;stroke-linejoin:round"
         id="rect307" />
      <rect
         x="831.81824"
         y="810.51709"
         width="234.27206"
         height="80.796463"
         ry="13.382893"
         rx="15.28234"
         style="fill:#b0d2ff;fill-rule:evenodd;stroke:#878787;stroke-width:0.791042;stroke-linecap:round;stroke-linejoin:round"
         id="rect309" />
      <rect
         x="888.59753"
         y="795.2276"
         width="120.70324"
         height="9.116024"
         ry="0"
         rx="0"
         style="fill:url(#linearGradient337);fill-rule:evenodd;stroke:#515151;stroke-width:0.388586;stroke-linecap:round;stroke-linejoin:bevel;stroke-miterlimit:3.5"
         id="rect311" />
      <rect
         x="837.96259"
         y="777.90698"
         width="221.98332"
         height="17.998318"
         ry="3.9212735"
         rx="7.9949307"
         style="fill:url(#linearGradient339);fill-rule:evenodd;stroke:#515151;stroke-width:0.755482;stroke-linecap:round;stroke-linejoin:bevel;stroke-miterlimit:3.5"
         id="rect313" />
      <rect
         x="841.86151"
         y="826.41895"
         width="136.09479"
         height="44.883518"
         ry="0"
         rx="0"
         style="fill:#ffffff;fill-opacity:0.72222;fill-rule:evenodd;stroke:#515151;stroke-width:1.12232;stroke-linecap:round;stroke-linejoin:bevel;stroke-miterlimit:3.5"
         id="rect315" />
      <text
         xml:space="preserve"
         x="820.7868"
         y="857.3443"
         style="font-size:6.1703px;line-height:125%;font-family:Sans;letter-spacing:0px;word-spacing:0px;fill:#000000"
         id="text321">           <tspan
   y="857.3443"
   style="font-weight:bold;font-size:27.7671px;font-family:Courier"
   x="820.7868"
   sodipodi:role="line"
   id="tspan319">004,57<tspan
   style="font-weight:bold;font-size:15.4263px"
   id="tspan317">g</tspan></tspan>         </text>
      <rect
         x="992.81714"
         y="838.96289"
         width="22.624968"
         height="19.796719"
         style="fill:url(#radialGradient341);fill-rule:evenodd;stroke:#515151;stroke-width:0.755482;stroke-linecap:round;stroke-linejoin:bevel;stroke-miterlimit:3.5"
         id="rect323" />
      <rect
         x="1024.9169"
         y="838.96289"
         width="22.624968"
         height="19.796719"
         style="fill:url(#radialGradient343);fill-rule:evenodd;stroke:#515151;stroke-width:0.755482;stroke-linecap:round;stroke-linejoin:bevel;stroke-miterlimit:3.5"
         id="rect325" />
      <path
         inkscape:connector-curvature="0"
         style="fill:url(#linearGradient345);fill-rule:evenodd"
         sodipodi:nodetypes="ccccc"
         d="m 843.88243,897.08946 h 26.42896 l -2.94766,8.67714 h -20.53364 z"
         id="path327" />
      <path
         inkscape:connector-curvature="0"
         style="fill:url(#linearGradient347);fill-rule:evenodd"
         sodipodi:nodetypes="ccccc"
         d="m 1023.6921,896.9976 h 26.4289 l -2.9476,8.67714 h -20.5337 z"
         id="path329" />
      <text
         id="text333"
         y="849.32153"
         x="995.50531"
         style="font-style:normal;font-weight:normal;font-size:6.6637px;line-height:125%;font-family:sans-serif;letter-spacing:0px;word-spacing:0px;fill:#000000;fill-opacity:1;stroke:none;stroke-width:1px;stroke-linecap:butt;stroke-linejoin:miter;stroke-opacity:1"
         xml:space="preserve"><tspan
           y="849.32153"
           x="995.50531"
           id="tspan331"
           sodipodi:role="line">TARE</tspan></text>
    </g>
    <path
       inkscape:export-ydpi="149"
       inkscape:export-xdpi="149"
       inkscape:export-filename="/home/stef/Dropbox/Travail/0---College/images/sources-vectorielles/filtration-buchner.png"
       sodipodi:nodetypes="cssssssscc"
       inkscape:connector-curvature="0"
       id="path5871-6"
       d="m 57.621824,137.63436 c 0,0 0.161191,-3.27383 -2.780497,-4.34707 -1.070292,-0.39083 -2.976076,1.23766 -4.071081,1.25221 -1.175064,0.0134 -1.876234,-2.56573 -3.185619,-1.69498 -0.919848,0.61179 -2.449523,-2.74902 -3.434385,-2.74902 -0.984862,0 -3.492415,-1.30738 -5.774302,1.22688 -1.474336,1.63746 -3.380119,-1.37135 -5.088176,1.15101 -2.605879,3.84773 -3.326391,2.42445 -5.660399,3.3184 -1.084257,0.41523 -3.14317,1.89322 -3.14317,1.89322 z"
       style="fill:#999999;fill-opacity:1;stroke:#000000;stroke-width:0.634711px;stroke-linecap:butt;stroke-linejoin:miter;stroke-opacity:1" />
    <text
       xml:space="preserve"
       style="font-style:normal;font-variant:normal;font-weight:normal;font-stretch:normal;font-size:12.3511px;line-height:1000;font-family:Carlito;-inkscape-font-specification:'Carlito, Normal';font-variant-ligatures:normal;font-variant-caps:normal;font-variant-numeric:normal;font-feature-settings:normal;text-align:start;letter-spacing:0px;word-spacing:0px;writing-mode:lr-tb;text-anchor:start;fill:#000000;fill-opacity:1;stroke:none;stroke-width:0.926335"
       x="-26.326984"
       y="138.7699"
       id="text6269"><tspan
         sodipodi:role="line"
         id="tspan6267"
         style="stroke-width:0.926335"
         x="-26.326984"
         y="138.7699">sel</tspan></text>
    <path
       style="fill:none;stroke:#000000;stroke-width:1.11252;stroke-linecap:butt;stroke-linejoin:miter;stroke-miterlimit:4;stroke-dasharray:none;stroke-opacity:1;marker-end:url(#Arrow1Mend)"
       d="m -9.9859299,135.70461 37.4678549,-0.0796"
       id="path11035"
       sodipodi:nodetypes="cc" />
    <text
       xml:space="preserve"
       style="font-style:normal;font-variant:normal;font-weight:normal;font-stretch:normal;font-size:5.90185px;line-height:1000;font-family:Carlito;-inkscape-font-specification:'Carlito, Normal';font-variant-ligatures:normal;font-variant-caps:normal;font-variant-numeric:normal;font-feature-settings:normal;text-align:start;letter-spacing:0px;word-spacing:0px;writing-mode:lr-tb;text-anchor:start;fill:#000000;fill-opacity:1;stroke:none;stroke-width:0.442639"
       x="30.31197"
       y="160.61823"
       id="text22969"><tspan
         sodipodi:role="line"
         id="tspan22967"
         style="stroke-width:0.442639"
         x="30.31197"
         y="160.61823">300  g</tspan></text>
    <text
       xml:space="preserve"
       style="font-style:normal;font-variant:normal;font-weight:normal;font-stretch:normal;font-size:5.90185px;line-height:1000;font-family:Carlito;-inkscape-font-specification:'Carlito, Normal';font-variant-ligatures:normal;font-variant-caps:normal;font-variant-numeric:normal;font-feature-settings:normal;text-align:start;letter-spacing:0px;word-spacing:0px;writing-mode:lr-tb;text-anchor:start;fill:#000000;fill-opacity:1;stroke:none;stroke-width:0.442639"
       x="106.59195"
       y="160.61823"
       id="text23053"><tspan
         sodipodi:role="line"
         id="tspan23051"
         style="stroke-width:0.442639"
         x="106.59195"
         y="160.61823">300  g</tspan></text>
  </g>
</svg>
